<svg id="Layer_1" data-name="Layer 1" xmlns="http://www.w3.org/2000/svg" viewBox="0 0 256.15 256"><defs><style>.cls-1{fill:#fff;}.cls-1,.cls-2,.cls-3,.cls-4,.cls-5,.cls-6{fill-rule:evenodd;}.cls-2{fill:#feba00;}.cls-3{fill:#30ab51;}.cls-4{fill:#1971ec;}.cls-5{fill:#ee4131;}.cls-6{fill:#4385fd;}</style></defs><path class="cls-1" d="M51.26,0H204.59A51.71,51.71,0,0,1,256,51.47V205c0,28-23.45,51-51.41,51H51.26c-28,0-51.41-23-51.41-51V51.47A51.71,51.71,0,0,1,51.26,0Z" transform="translate(0.15)"/><path class="cls-2" d="M150,27.67a73.32,73.32,0,0,1,42.39,35.17l-40.58,46.9a27.32,27.32,0,0,0,4-14.88,28.1,28.1,0,0,0-28-28,30.7,30.7,0,0,0-15.78,4.51ZM146,116.51,97.71,172.43C92.3,165.66,86.89,158.9,81.47,153a114.91,114.91,0,0,1-17.13-25.71l38.33-44.65A29.85,29.85,0,0,0,100,94.86a28.2,28.2,0,0,0,28,28.41,27.77,27.77,0,0,0,18-6.76Z" transform="translate(0.15)"/><path class="cls-3" d="M192.41,62.84a71.61,71.61,0,0,1,6.77,29.32v3.15c.45,7.67-.9,29.77-24.81,57.73-16.23,18-34.27,39.68-40.13,63.58-3.16,12.18-9.47,12.18-12.63-.45-4.06-15.33-13.08-30.21-23.9-43.74L146,116.51a42.28,42.28,0,0,0,5.87-6.77Z" transform="translate(0.15)"/><path class="cls-4" d="M127.92,24.06A70.74,70.74,0,0,1,150,27.67L112.14,71.41c-4.06,3.16-7.67,6.77-9.47,11.27L64.34,127.33c-7.22-15.33-7.67-27.06-7.67-32V92.16c0-37.44,32-68.1,71.25-68.1Z" transform="translate(0.15)"/><path class="cls-5" d="M102.67,82.68,64.34,127.33c-7.22-15.33-7.67-27.06-7.67-32V92.16a64.72,64.72,0,0,1,16.69-43.3l33.82,27.06a29.7,29.7,0,0,0-4.51,6.76Z" transform="translate(0.15)"/><path class="cls-6" d="M150,27.67h.45l.45.45h.91l.9.45h0l.9.45h.9l.9.45.45.45h.46l.45.45h.9l.45.45,1.35.45h0l1.35.91h.46c.45,0,.9.45,1.35.45v.45l1.35.45.45.45h.45l.91.45v.45h.9l.45.9h0l.9.45.45.46.9.45.91.45c.45.45,1.35.9,1.8,1.35l.9.9.45.45h.45c0,.45.45.45.9.91l.46.45.9.9h.45l.9.9.45.45.9.9h0l.45.45.91.91h0l.9.9.45.45L182,48h0l.45.45v.45l.45.45h0l.9.45.46.91h0l.45.45.45.9h0l.45.45.45.9h0l.9.9.45.45v.46l.9.9v.45c.46,0,.46.45.91.9v.45l.9.9v.45l.45.91.45.9.45.45.45.9v.45h.45l-40.58,46.9a27.32,27.32,0,0,0,4-14.88,28.1,28.1,0,0,0-28-28,30.7,30.7,0,0,0-15.78,4.51Z" transform="translate(0.15)"/></svg>