<svg id="Layer_1" data-name="Layer 1" xmlns="http://www.w3.org/2000/svg" xmlns:xlink="http://www.w3.org/1999/xlink" viewBox="0 0 486.77 498.98"><defs><style>.cls-1{fill:none;}.cls-2{fill:url(#linear-gradient);}.cls-3{fill:url(#linear-gradient-2);}.cls-4{fill:#32204f;}.cls-5{fill:#ab4242;}</style><linearGradient id="linear-gradient" x1="215.19" y1="1.01" x2="215.19" y2="500.25" gradientUnits="userSpaceOnUse"><stop offset="0" stop-color="#3f1861"/><stop offset="0.09" stop-color="#4b1c5c"/><stop offset="0.17" stop-color="#592157"/><stop offset="0.8" stop-color="#ca472a"/></linearGradient><linearGradient id="linear-gradient-2" x1="357.19" y1="1.01" x2="357.19" y2="500.25" xlink:href="#linear-gradient"/></defs><path class="cls-1" d="M260.33,1c-3.7-.16-7.41-.25-11.14-.25s-7.45.09-11.14.25Z" transform="translate(-11.79 -0.76)"/><path class="cls-2" d="M123.48,34.76c4,16.41,1.71,37.66.14,59.82q21.63-32,61.38-49.78a165.46,165.46,0,0,1,66.17-14.37,13.91,13.91,0,0,1,3.87,0q3.89,0,8,.28c18.84,1.27,30,3,43.8,9.12C292.09,22,289.09,10.73,296.23,5.2A249.48,249.48,0,0,0,260.33,1H238.05A247.84,247.84,0,0,0,123.48,34.76Z" transform="translate(-11.79 -0.76)"/><path class="cls-3" d="M383,216.83q-6,15.61-18.9,37.71a150.18,150.18,0,0,1-7.87,26.31c-39.93,99.72-48.93,92.44-17.41,132a234.28,234.28,0,0,1,22.6-59.1c10.09-16,42.82-107.48,30.26-187,0,.48,0,.95,0,1.43Q392.86,191.41,383,216.83Z" transform="translate(-11.79 -0.76)"/><path class="cls-4" d="M99.87,164.47a145.26,145.26,0,0,1,23.75-69.89c1.57-22.16,3.82-43.41-.14-59.82A250.77,250.77,0,0,0,34.08,124a234.2,234.2,0,0,0,36,21.73A241.9,241.9,0,0,1,99.87,164.47Z" transform="translate(-11.79 -0.76)"/><path class="cls-4" d="M113.23,323.21c-20.1-.75-118.9-52.73-50,34.93,44.87,57.07,103.67,56.25,149.05,46.33a488.78,488.78,0,0,0-39.72-77.73C148.12,328.6,128.47,323.78,113.23,323.21Z" transform="translate(-11.79 -0.76)"/><path class="cls-4" d="M135.66,428.14C68.44,410.42,33.44,366.6,11.79,327c31.2,96.93,120,168,226,172.74a400,400,0,0,0-15-66C199.67,437.48,171.23,437.52,135.66,428.14Z" transform="translate(-11.79 -0.76)"/><path class="cls-4" d="M306.89,39.83c4.1,1.81,8.42,4,13.24,6.72a27.79,27.79,0,0,1,2.68,1.66q5.67,3.59,11.33,7.46A144.73,144.73,0,0,1,373.48,98a125.9,125.9,0,0,1,18.22,68.77c12.56,79.48-20.17,171-30.26,187a234.28,234.28,0,0,0-22.6,59.1c-31.52-39.51-22.52-32.23,17.41-131.95a150.18,150.18,0,0,0,7.87-26.31q-2,3.33-4.05,6.79-1.79,3-34.27,54.73-20.58,32.63-32.49,55a157.42,157.42,0,0,0-7.57,16.49c24.45,4.39,36,32.64,36,32.64-11.4-14.83-24.8-10.49-45.16-2.64-5.92,25.88-8.15,53.67-10.54,81.87,129.85-8.69,232.48-116.87,232.48-249,0-121.76-87.1-223.16-202.33-245.18C289.09,10.73,292.09,22,306.89,39.83Z" transform="translate(-11.79 -0.76)"/><path class="cls-4" d="M35.89,210.74c-2.41,57.9,60.59,79.46,114.69,82.85q-19-28.57-33.23-54.74A151.53,151.53,0,0,1,102,196.6C70.16,181.5,37.38,174.94,35.89,210.74Z" transform="translate(-11.79 -0.76)"/><path class="cls-5" d="M176,231.56c1.68-7.2,18.29-50.48,68.41-83.74S301.5,88.23,292.1,75.31c-9.63-13.24-78-36.25-132.54,30.36,0,0-52.74,73.18,2.81,132.78C168.68,243.47,174.31,238.76,176,231.56Z" transform="translate(-11.79 -0.76)"/><path class="cls-5" d="M237.5,183.06c-50.13,33.27-57.08,59.59-47.69,72.51,9.63,13.24,77.38,35.37,131.93-31.23,0,0,56.7-73.84-2.2-131.91-6.32-5-11.94-.31-13.63,6.9S287.63,149.8,237.5,183.06Z" transform="translate(-11.79 -0.76)"/></svg>