<svg id="Layer_1" data-name="Layer 1" xmlns="http://www.w3.org/2000/svg" xmlns:xlink="http://www.w3.org/1999/xlink" viewBox="0 0 1451.32 1487.73"><defs><style>.cls-1{fill:none;}.cls-2{fill:url(#linear-gradient);}.cls-3{fill:url(#linear-gradient-2);}.cls-4{fill:#32204f;}.cls-5{fill:#ab4242;}</style><linearGradient id="linear-gradient" x1="642.63" y1="-488.26" x2="642.63" y2="1000.24" gradientUnits="userSpaceOnUse"><stop offset="0" stop-color="#3f1861"/><stop offset="0.09" stop-color="#4b1c5c"/><stop offset="0.17" stop-color="#592157"/><stop offset="0.8" stop-color="#ca472a"/></linearGradient><linearGradient id="linear-gradient-2" x1="1066.01" y1="-488.26" x2="1066.01" y2="1000.24" xlink:href="#linear-gradient"/></defs><path class="cls-1" d="M777.22-488.26Q760.71-489,744-489t-33.22.74Z" transform="translate(-36.19 489)"/><path class="cls-2" d="M369.2-387.64c11.8,48.92,5.09,112.28.42,178.37q64.49-95.43,183-148.42,95.1-42,197.28-42.86a41.38,41.38,0,0,1,11.56,0q11.53,0,24,.82c56.18,3.82,89.51,9,130.6,27.2-44.13-53.21-53.08-86.76-31.78-103.24a745.22,745.22,0,0,0-107.06-12.49H710.79A738.83,738.83,0,0,0,369.2-387.64Z" transform="translate(-36.19 489)"/><path class="cls-3" d="M1143,155.21q-17.76,46.54-56.35,112.44a449.22,449.22,0,0,1-23.46,78.44C944.16,643.4,917.33,621.7,1011.31,739.5a699,699,0,0,1,67.37-176.2c30.08-47.59,127.67-320.46,90.22-557.42,0,1.42-.05,2.84-.09,4.26Q1172.38,79.4,1143,155.21Z" transform="translate(-36.19 489)"/><path class="cls-4" d="M298.82-.91a407.08,407.08,0,0,1,22.77-111.18,411.19,411.19,0,0,1,48-97.18c4.67-66.09,11.38-129.45-.42-178.37a747.55,747.55,0,0,0-266.56,266.2c28.93,21.67,64.55,43.53,107.21,64.77A729.31,729.31,0,0,1,298.82-.91Z" transform="translate(-36.19 489)"/><path class="cls-4" d="M338.64,472.4c-59.93-2.25-354.5-157.22-149,104.12,133.8,170.17,309.1,167.72,444.41,138.15q-46.69-117-118.42-231.76C442.67,488.45,384.08,474.1,338.64,472.4Z" transform="translate(-36.19 489)"/><path class="cls-4" d="M405.53,785.25C205.08,732.42,100.73,601.76,36.19,483.69c93,289,357.79,500.85,674,515a1193,1193,0,0,0-44.84-196.84C596.36,813.08,511.58,813.2,405.53,785.25Z" transform="translate(-36.19 489)"/><path class="cls-4" d="M916.06-372.53c12.21,5.42,25.09,12,39.47,20,3,1.67,5.63,3.3,8,5q16.88,10.71,33.77,22.26,72,51.91,117.3,126.09,56.67,94.59,54.3,205.07c37.45,237-60.14,509.83-90.22,557.42a699,699,0,0,0-67.37,176.2c-94-117.8-67.15-96.1,51.91-393.41a449.22,449.22,0,0,0,23.46-78.44q-5.81,9.9-12.07,20.25-5.34,9-102.2,163.17-61.3,97.26-96.86,164A474.59,474.59,0,0,0,853,664.25c72.9,13.1,107.46,97.31,107.46,97.31-34-44.2-73.93-31.28-134.64-7.86-17.67,77.17-24.3,160-31.42,244.11,387.13-25.93,693.13-348.47,693.13-742.56,0-363-259.67-665.36-603.23-731C863-459.29,871.93-425.74,916.06-372.53Z" transform="translate(-36.19 489)"/><path class="cls-4" d="M108.05,137.06C100.87,309.7,288.7,374,450,384.08q-56.65-85.2-99.11-163.22Q317.52,158,305.27,94.9C210.22,49.87,112.48,30.33,108.05,137.06Z" transform="translate(-36.19 489)"/><path class="cls-5" d="M525.78,199.13c5-21.48,54.54-150.51,204-249.68S900-228.2,871.94-266.73c-28.69-39.48-232.55-108.09-395.17,90.5,0,0-157.25,218.19,8.39,395.92C504,234.65,520.75,220.61,525.78,199.13Z" transform="translate(-36.19 489)"/><path class="cls-5" d="M709.14,54.54C559.7,153.72,539,232.2,567,270.73c28.71,39.46,230.73,105.46,393.36-93.14,0,0,169-220.15-6.56-393.28-18.83-15-35.61-.94-40.63,20.56S858.61-44.63,709.14,54.54Z" transform="translate(-36.19 489)"/></svg>