<svg id="Layer_1" data-name="Layer 1" xmlns="http://www.w3.org/2000/svg" viewBox="0 0 233.27 255.99"><defs><style>.cls-1{fill:#32204f;}</style></defs><path class="cls-1" d="M194.68,94c28.1,4.61,49.59,29.76,49.59,60.08s-21.49,55.47-49.59,60.09v4.57a8,8,0,0,1-.11,1.29L193,229.3a8,8,0,0,1-.42,1.5c-5.15,13.18-19.13,23-35.63,25.1a12.63,12.63,0,0,1-1.63.1H94a14.53,14.53,0,0,1-1.62-.1c-17.26-2.16-31.44-12.58-36.15-26.54a7.42,7.42,0,0,1-.28-1.15L54.66,221s0-14.6,0-14.65H53.57C30.1,206.33,11,190.46,11,171V124.1c0-5,4.88-9.07,10.91-9.07H54.38L54.3,90.16a8.39,8.39,0,0,1,3.19-6.43,12.15,12.15,0,0,1,7.73-2.66H183.76c6,0,10.92,4.06,10.92,9.07ZM92.11,65.61a11.34,11.34,0,0,1-5-1.14c-4-2-5-6-2.25-9,9.9-10.38,1.74-17.54.78-18.33-6.66-5.09-15.52-18.94-.77-34.38C87.62-.13,93.15-.87,97.18,1.16s5,6,2.24,9c-10.3,10.8-1.25,17.95-.85,18.25,6.74,5.16,15.58,19,.85,34.46A10.24,10.24,0,0,1,92.11,65.61Zm30.61,0a11.34,11.34,0,0,1-5-1.14c-4-2-5-6-2.24-9,9.89-10.38,1.73-17.54.77-18.32-6.66-5.1-15.51-18.94-.77-34.39,2.79-2.92,8.31-3.66,12.35-1.63s5,6,2.24,9c-10.3,10.8-1.24,18-.85,18.26,6.74,5.16,15.58,19,.85,34.45A10.17,10.17,0,0,1,122.72,65.61Zm30.62,0a11.31,11.31,0,0,1-5-1.14c-4-2-5-6-2.25-9,9.89-10.38,1.73-17.54.77-18.32-6.66-5.1-15.51-18.94-.77-34.39,2.78-2.93,8.31-3.66,12.34-1.63s5,6,2.25,9c-10.3,10.8-1.24,17.95-.85,18.25,6.74,5.16,15.59,19,.85,34.46A10.18,10.18,0,0,1,153.34,65.61ZM32.87,168.22C32.87,178,42.34,186,54,186h.74V133.55H41.4a8.53,8.53,0,0,0-8.53,8.53Zm152.49,41.16c29.58,0,53.55-24.76,53.55-55.31s-24-55.31-53.55-55.31-53.56,24.77-53.56,55.31S155.78,209.38,185.36,209.38Zm22.15-45.16a14.83,14.83,0,0,1-4.24,10.56q-4.25,4.44-12.29,5.7v3.75a4.27,4.27,0,1,1-8.54,0v-3.46a43.3,43.3,0,0,1-10.11-1.87,33.72,33.72,0,0,1-5.31-2.15,3.29,3.29,0,0,1-1.46-4.21l.07-.16,2.31-5.37a2.4,2.4,0,0,1,3.22-1.27l.16.08.35.19a32.29,32.29,0,0,0,5.14,2.11,28.78,28.78,0,0,0,8.69,1.4q8.12,0,8.12-4.19a3.47,3.47,0,0,0-2.32-3.28,41.16,41.16,0,0,0-7.44-2.24,69.9,69.9,0,0,1-9.4-2.68,15.93,15.93,0,0,1-6.48-4.6q-2.7-3.17-2.7-8.53a15,15,0,0,1,4.41-10.85q4.41-4.53,12.75-5.55v-3.68a4.27,4.27,0,1,1,8.54,0v3.53a39.56,39.56,0,0,1,7.8,1.47,31,31,0,0,1,4.87,1.88l.42.22a1.79,1.79,0,0,1,.79,2.23l-3.24,8A1.25,1.25,0,0,1,200,142l-.08,0-.61-.31a27.1,27.1,0,0,0-12-3q-4.2,0-6.12,1.29a3.86,3.86,0,0,0-1.93,3.34,3.31,3.31,0,0,0,2.28,3.09,39.64,39.64,0,0,0,7.34,2.13,67,67,0,0,1,9.43,2.69,16.06,16.06,0,0,1,6.48,4.56Q207.51,158.85,207.51,164.22Z" transform="translate(-11 -0.01)"/></svg>