<svg id="Layer_1" data-name="Layer 1" xmlns="http://www.w3.org/2000/svg" viewBox="0 0 587.34 1000"><defs><style>.cls-1{fill:#32204f;fill-rule:evenodd;}.cls-2{fill:#ab4242;}</style></defs><path class="cls-1" d="M802.13,277.19q2.42-76.12-36.55-141.14a291.25,291.25,0,0,0-79.1-85q-11.37-7.78-22.76-15c-1.6-1.12-3.4-2.22-5.4-3.34C616,9,592.78,4.17,543.65.83q-8.4-.55-16.18-.55a27.43,27.43,0,0,0-7.79,0,332.51,332.51,0,0,0-133,28.89Q269.81,81.38,230.87,194.78q-39.56,112.8,19.77,224.5,33.57,61.68,80.29,130,143.22,206.18,165.38,422.9,1.2,13.37,5.39,20,6,6.66,18,7.77h2.4a30,30,0,0,0,5.39-.56c6.39-1.11,11.18-4.06,14.38-8.89Q546,985,547.24,971.1c9.2-102.25,13.21-203.39,57.15-286q24-45,65.32-110.59,65.29-103.89,68.9-110Q771,411.13,784.75,375,804.52,323.86,802.13,277.19Z" transform="translate(-215.05)"/><path class="cls-2" d="M335.51,151.53s-106,147.12,5.65,267c12.69,10.09,24,.62,27.39-13.87S405.33,303.14,506.1,236.27,620.86,116.49,602,90.5C582.61,63.89,445.16,17.63,335.51,151.53Z" transform="translate(-215.05)"/><path class="cls-2" d="M661.55,390.1s114-148.44-4.42-265.18c-12.7-10.1-24-.63-27.39,13.86S593,240.27,492.19,307.13,377.44,426.92,396.32,452.9C415.68,479.51,551.89,524,661.55,390.1Z" transform="translate(-215.05)"/></svg>