<svg id="Layer_1" data-name="Layer 1" xmlns="http://www.w3.org/2000/svg" viewBox="0 0 128.92 219.5"><defs><style>.cls-1{fill:#fff;fill-rule:evenodd;}.cls-2{fill:#ab4242;}</style></defs><path class="cls-1" d="M149.28,61.34a55.67,55.67,0,0,0-8-31A63.88,63.88,0,0,0,123.89,11.7q-2.49-1.71-5-3.3c-.35-.24-.74-.48-1.18-.73-9.29-5.2-14.39-6.26-25.17-7C91.31.6,90.13.56,89,.56a6.11,6.11,0,0,0-1.71,0A72.91,72.91,0,0,0,58.08,6.9Q32.43,18.36,23.88,43.25t4.34,49.28a333.47,333.47,0,0,0,17.63,28.54q31.44,45.26,36.3,92.83a10.18,10.18,0,0,0,1.18,4.39,5.77,5.77,0,0,0,4,1.71h.52a6.75,6.75,0,0,0,1.19-.12,4.56,4.56,0,0,0,3.16-1.95,8.64,8.64,0,0,0,1.18-4.27c2-22.45,2.9-44.65,12.54-62.78q5.26-9.88,14.34-24.28,14.34-22.8,15.13-24.15a126.76,126.76,0,0,0,10.12-19.64A51.83,51.83,0,0,0,149.28,61.34Z" transform="translate(-20.41 -0.5)"/><path class="cls-2" d="M46.85,33.76s-23.27,32.29,1.24,58.6c2.79,2.21,5.27.13,6-3S62.18,67,84.3,52.36s25.19-26.29,21-32S70.92,4.37,46.85,33.76Z" transform="translate(-20.41 -0.5)"/><path class="cls-2" d="M118.42,86.13s25-32.59-1-58.21c-2.79-2.22-5.27-.14-6,3s-8.07,22.28-30.2,36.95-25.18,26.3-21,32S94.35,115.52,118.42,86.13Z" transform="translate(-20.41 -0.5)"/></svg>