<svg id="Layer_1" data-name="Layer 1" xmlns="http://www.w3.org/2000/svg" xmlns:xlink="http://www.w3.org/1999/xlink" viewBox="0 0 999 1000"><defs><style>.cls-1{fill:none;}.cls-2{fill:url(#linear-gradient);}.cls-3{fill:url(#linear-gradient-2);}.cls-4{fill:url(#linear-gradient-3);}.cls-5{fill:url(#linear-gradient-4);}.cls-6{fill:#32204f;}.cls-7{fill:#fff;fill-rule:evenodd;}.cls-8{fill:#ab4242;}</style><linearGradient id="linear-gradient" x1="451.54" x2="451.54" y2="1000" gradientUnits="userSpaceOnUse"><stop offset="0" stop-color="#3f1861"/><stop offset="0.09" stop-color="#4b1c5c"/><stop offset="0.17" stop-color="#592157"/><stop offset="0.8" stop-color="#ca472a"/></linearGradient><linearGradient id="linear-gradient-2" x1="233.39" x2="233.39" y2="1000" xlink:href="#linear-gradient"/><linearGradient id="linear-gradient-3" x1="598.31" x2="598.31" y2="1000" xlink:href="#linear-gradient"/><linearGradient id="linear-gradient-4" x1="716.33" x2="716.33" y2="1000" xlink:href="#linear-gradient"/></defs><path class="cls-1" d="M522.31,0Q511.21-.49,500-.5T477.69,0Z" transform="translate(-0.5 0.5)"/><path class="cls-2" d="M248.2,67.59c11.57,48-3.35,116.59-1.83,181.4q38-96.45,140.39-142.26A308.76,308.76,0,0,1,510.25,79.9a25.78,25.78,0,0,1,7.24,0q7.21,0,15,.52C578.12,83.51,599.66,88,639,110c1.86,1,3.53,2.07,5,3.11q6.42,4.08,12.85,8.35c-64-61.78-82-98-62.58-113A500.6,500.6,0,0,0,522.31,0H477.69A496.38,496.38,0,0,0,248.2,67.59Z" transform="translate(-0.5 0.5)"/><path class="cls-3" d="M272.6,855.56C354,877,416.74,873.85,466.28,863.11q-8.22-30.11-19-60C354.11,827,224.6,838.74,127.57,715.34c-138.06-175.58,59.84-71.47,100.1-70,35.92,1.35,84.08,14.46,145.82,3.71Q355.61,619.22,335,589.6L333.28,587C219.73,586.92,67.47,547.29,72.75,420.1,76.22,336.72,164.43,368,236,407.61a244.06,244.06,0,0,1-8.5-59.23A484.32,484.32,0,0,0,141.14,290c-28.66-14.27-52.58-29-72-43.52A501.74,501.74,0,0,0,24.48,653C67.84,732.29,137.94,820.07,272.6,855.56Z" transform="translate(-0.5 0.5)"/><path class="cls-4" d="M645.4,839.65s-25.65-62.54-79.93-66.35a497.31,497.31,0,0,0-14.25,62.51C594.12,819.19,621.87,809.06,645.4,839.65Z" transform="translate(-0.5 0.5)"/><path class="cls-5" d="M772.47,337q2.24,43.35-16.14,90.81a402.58,402.58,0,0,1-21.27,45.44,297,297,0,0,1-20.61,87.3c-80,199.74-98,185.16-34.87,264.3a469.42,469.42,0,0,1,45.26-118.38c26.19-41.43,128.54-337,10.93-504.9.93,1.46,1.86,2.92,2.76,4.4Q774.7,266.3,772.47,337Z" transform="translate(-0.5 0.5)"/><path class="cls-6" d="M72.75,420.1C67.47,547.29,219.73,586.92,333.28,587Q291,525,260.49,468.88A292.44,292.44,0,0,1,236,407.61C164.43,368,76.22,336.72,72.75,420.1Z" transform="translate(-0.5 0.5)"/><path class="cls-6" d="M466.28,863.11C416.74,873.85,354,877,272.6,855.56,137.94,820.07,67.84,732.29,24.48,653c64,198.89,249.08,343.38,468.33,346.48-2.16-4.09-3.58-9.82-4.25-17.25A737.76,737.76,0,0,0,466.28,863.11Z" transform="translate(-0.5 0.5)"/><path class="cls-6" d="M656.82,121.44c2.77,1.84,5.53,3.69,8.29,5.58a270.52,270.52,0,0,1,70.66,74.53C853.38,369.44,751,665,724.84,706.45a469.42,469.42,0,0,0-45.26,118.38c-63.14-79.14-45.11-64.56,34.87-264.3a297,297,0,0,0,20.61-87.3q-9.36,17.49-21.56,37.62-3.33,5.67-64,102.14-38.38,60.88-60.63,102.66a320.54,320.54,0,0,0-23.43,57.65c54.28,3.81,79.93,66.35,79.93,66.35-23.53-30.59-51.28-20.46-94.18-3.84-7.77,46.65-10.93,95.86-15.38,145.36-.68,8-2.2,13.83-4.51,17.36C792.6,982.34,999.5,765.11,999.5,499.5c0-243.89-174.45-447-405.26-491.11C574.79,23.43,592.87,59.66,656.82,121.44Z" transform="translate(-0.5 0.5)"/><path class="cls-6" d="M227.51,348.38q-.8-43.86,14.63-87.91c1.33-3.89,2.75-7.71,4.23-11.48-1.52-64.81,13.4-133.43,1.83-181.4A502.29,502.29,0,0,0,69.12,246.43c19.44,14.56,43.36,29.25,72,43.52A484.32,484.32,0,0,1,227.51,348.38Z" transform="translate(-0.5 0.5)"/><path class="cls-6" d="M227.67,645.38c-40.26-1.51-238.16-105.62-100.1,70,97,123.4,226.54,111.68,319.69,87.78q-28.11-77.77-73.77-154C311.75,659.84,263.59,646.73,227.67,645.38Z" transform="translate(-0.5 0.5)"/><path class="cls-7" d="M551.22,835.81a497.31,497.31,0,0,1,14.25-62.51,320.54,320.54,0,0,1,23.43-57.65Q611.15,673.86,649.53,613q60.63-96.45,64-102.14,12.21-20.14,21.56-37.62a402.58,402.58,0,0,0,21.27-45.44Q774.69,380.3,772.47,337q2.24-70.67-33.94-131c-.9-1.48-1.83-2.94-2.76-4.4A270.52,270.52,0,0,0,665.11,127c-2.76-1.89-5.52-3.74-8.29-5.58q-6.42-4.26-12.85-8.35c-1.48-1-3.15-2.06-5-3.11-39.3-22-60.84-26.47-106.46-29.56q-7.79-.51-15-.52a25.78,25.78,0,0,0-7.24,0,308.76,308.76,0,0,0-123.49,26.83Q284.29,152.52,246.37,249c-1.48,3.77-2.9,7.59-4.23,11.48q-15.45,44-14.63,87.91a244.06,244.06,0,0,0,8.5,59.23,292.44,292.44,0,0,0,24.48,61.27Q291,525,333.28,587L335,589.6q20.58,29.63,38.46,59.49,45.67,76.24,73.77,154,10.8,29.88,19,60A737.76,737.76,0,0,1,488.56,982.2c.67,7.43,2.09,13.16,4.25,17.25q3.58,0,7.19,0,15.78,0,31.33-1c2.31-3.53,3.83-9.32,4.51-17.36C540.29,931.67,543.45,882.46,551.22,835.81Zm102.7-642.7c118,116.31,4.4,264.22,4.4,264.22-109.26,133.42-245,89.08-264.26,62.57-18.81-25.89-4.88-78.61,95.52-145.24s133.67-153.31,137-167.73S641.27,183.05,653.92,193.11ZM333.47,219.63C442.72,86.21,579.67,132.3,599,158.82c18.83,25.89,4.89,78.6-95.52,145.24s-133.67,153.31-137,167.74-14.65,23.86-27.29,13.81C227.82,366.21,333.47,219.63,333.47,219.63Z" transform="translate(-0.5 0.5)"/><path class="cls-8" d="M366.39,471.8c3.37-14.43,36.64-101.12,137-167.74S617.78,184.71,599,158.82c-19.28-26.52-156.23-72.61-265.48,60.81,0,0-105.65,146.58,5.63,266C351.74,495.66,363,486.23,366.39,471.8Z" transform="translate(-0.5 0.5)"/><path class="cls-8" d="M489.58,374.66C389.18,441.29,375.25,494,394.06,519.9c19.29,26.51,155,70.85,264.26-62.57,0,0,113.57-147.91-4.4-264.22-12.65-10.06-23.92-.63-27.3,13.82S590,308,489.58,374.66Z" transform="translate(-0.5 0.5)"/></svg>