<svg id="Layer_1" data-name="Layer 1" xmlns="http://www.w3.org/2000/svg" xmlns:xlink="http://www.w3.org/1999/xlink" viewBox="0 0 975.02 999.48"><defs><style>.cls-1{fill:none;}.cls-2{fill:url(#linear-gradient);}.cls-3{fill:url(#linear-gradient-2);}.cls-4{fill:#32204f;}.cls-5{fill:#ab4242;}</style><linearGradient id="linear-gradient" x1="431.9" x2="431.9" y2="1000" gradientUnits="userSpaceOnUse"><stop offset="0" stop-color="#3f1861"/><stop offset="0.09" stop-color="#4b1c5c"/><stop offset="0.17" stop-color="#592157"/><stop offset="0.8" stop-color="#ca472a"/></linearGradient><linearGradient id="linear-gradient-2" x1="716.32" x2="716.32" y2="1000" xlink:href="#linear-gradient"/></defs><path class="cls-1" d="M522.31,0Q511.21-.49,500-.5T477.69,0Z" transform="translate(-24.48 0.5)"/><path class="cls-2" d="M248.2,67.59c7.93,32.87,3.42,75.44.28,119.84q43.32-64.12,123-99.72A331.5,331.5,0,0,1,504,58.92a28,28,0,0,1,7.76,0q7.75,0,16.12.56c37.74,2.56,60.13,6,87.74,18.27C585.94,42,579.93,19.46,594.24,8.39A500.6,500.6,0,0,0,522.31,0H477.69A496.38,496.38,0,0,0,248.2,67.59Z" transform="translate(-24.48 0.5)"/><path class="cls-3" d="M768.07,432.29q-11.94,31.27-37.85,75.54a302.17,302.17,0,0,1-15.77,52.7c-80,199.74-98,185.16-34.87,264.3a469.42,469.42,0,0,1,45.26-118.38c20.21-32,85.77-215.29,60.61-374.48,0,.95,0,1.9-.06,2.86Q787.79,381.36,768.07,432.29Z" transform="translate(-24.48 0.5)"/><path class="cls-4" d="M200.92,327.41a290.59,290.59,0,0,1,47.56-140c3.14-44.4,7.65-87-.28-119.84A502.29,502.29,0,0,0,69.12,246.43c19.44,14.56,43.36,29.25,72,43.52A488.87,488.87,0,0,1,200.92,327.41Z" transform="translate(-24.48 0.5)"/><path class="cls-4" d="M227.67,645.38c-40.26-1.51-238.16-105.62-100.1,70C217.46,829.66,335.23,828,426.13,808.15q-31.38-78.58-79.56-155.7C297.55,656.17,258.19,646.53,227.67,645.38Z" transform="translate(-24.48 0.5)"/><path class="cls-4" d="M272.6,855.56C137.94,820.07,67.84,732.29,24.48,653,87,847.14,264.85,989.45,477.26,999a801.48,801.48,0,0,0-30.13-132.24C400.81,874.26,343.85,874.34,272.6,855.56Z" transform="translate(-24.48 0.5)"/><path class="cls-4" d="M615.59,77.75c8.2,3.64,16.85,8,26.52,13.45a63,63,0,0,1,5.37,3.34q11.34,7.18,22.68,14.95A290.18,290.18,0,0,1,749,194.2Q787.06,257.74,785.45,332c25.16,159.19-40.4,342.51-60.61,374.48a469.42,469.42,0,0,0-45.26,118.38c-63.14-79.14-45.11-64.56,34.87-264.3a302.17,302.17,0,0,0,15.77-52.7q-3.9,6.66-8.12,13.6-3.57,6.09-68.65,109.62-41.19,65.36-65.08,110.19a320.9,320.9,0,0,0-15.16,33c49,8.8,72.19,65.38,72.19,65.38-22.84-29.7-49.66-21-90.45-5.28-11.87,51.84-16.33,107.5-21.11,164C793.93,980.94,999.5,764.26,999.5,499.5c0-243.89-174.45-447-405.26-491.11C579.93,19.46,585.94,42,615.59,77.75Z" transform="translate(-24.48 0.5)"/><path class="cls-4" d="M72.75,420.1c-4.82,116,121.37,159.15,229.74,165.95q-38.06-57.24-66.58-109.66-22.42-42.22-30.66-84.62C141.39,361.52,75.73,348.39,72.75,420.1Z" transform="translate(-24.48 0.5)"/><path class="cls-5" d="M353.39,461.8c3.37-14.43,36.64-101.12,137-167.74S604.78,174.71,586,148.82c-19.28-26.52-156.23-72.61-265.48,60.81,0,0-105.65,146.58,5.63,266C338.74,485.66,350,476.23,353.39,461.8Z" transform="translate(-24.48 0.5)"/><path class="cls-5" d="M476.58,364.66C376.18,431.29,362.25,484,381.06,509.9c19.29,26.51,155,70.85,264.26-62.57,0,0,113.57-147.91-4.4-264.22-12.65-10.06-23.92-.63-27.3,13.82S577,298,476.58,364.66Z" transform="translate(-24.48 0.5)"/></svg>